<svg xmlns="http://www.w3.org/2000/svg" viewBox="0 0 24 24" fill="currentColor">
  <path d="M3 3h18v18H3V3zm16.525 13.707c-.131-.821-.666-1.511-2.252-2.155-.552-.259-1.165-.438-1.349-.854-.068-.248-.078-.382-.034-.529.113-.484.687-.629 1.137-.495.293.09.563.315.732.676.775-.507.775-.507 1.316-.844-.203-.314-.304-.451-.439-.586-.473-.528-1.103-.798-2.126-.77l-.528.067c-.507.124-.991.395-1.283.754-.855.968-.608 2.655.427 3.354 1.023.765 2.521.933 2.712 1.653.18.878-.652 1.159-1.475 1.058-.607-.136-.945-.439-1.316-.998l-1.372.788c.157.359.337.517.607.832 1.305 1.316 4.568 1.249 5.153-.754.021-.067.18-.528.056-1.237l.034.049zm-6.737-5.434h-1.686c0 1.453-.007 2.898-.007 4.354 0 .924.047 1.772-.104 2.033-.247.528-.883.487-1.118.034-.297-.336-.257-.736-.257-1.182l.007-5.239h-1.679c0 1.463.067 2.914.067 4.374 0 1.341.432 2.114 1.178 2.637.746.546 1.921.783 3.386.137.978-.474 1.479-1.401 1.479-2.889 0-1.463-.034-2.914-.034-4.259h.034z"/>
</svg>
